<mxfile host="app.diagrams.net" modified="2024-03-21T20:40:10.559Z" agent="Mozilla/5.0 (Macintosh; Intel Mac OS X 10.15; rv:123.0) Gecko/20100101 Firefox/123.0" etag="lo6vt2s1N7-u7ofNfqMH" version="24.0.7" type="device">
  <diagram name="Page-1" id="lLRAGf--KRvg2qGbkU8X">
    <mxGraphModel dx="914" dy="489" grid="1" gridSize="10" guides="1" tooltips="1" connect="1" arrows="1" fold="1" page="1" pageScale="1" pageWidth="850" pageHeight="1100" math="0" shadow="0">
      <root>
        <mxCell id="0" />
        <mxCell id="1" parent="0" />
        <mxCell id="U4VZhS2COFcRGdfg7jkA-1" value="" style="rounded=1;whiteSpace=wrap;html=1;" vertex="1" parent="1">
          <mxGeometry x="360" y="230" width="120" height="60" as="geometry" />
        </mxCell>
      </root>
    </mxGraphModel>
  </diagram>
</mxfile>
